<?xml version="1.0" encoding="UTF-8"?>
<svg xmlns="http://www.w3.org/2000/svg"
     width="512" height="512" viewBox="0 0 1000 1000"
     role="img" aria-labelledby="title desc"
     shape-rendering="geometricPrecision">
  <title id="title">HarborGate AI Audit favicon</title>
  <desc id="desc">Lighthouse and waves inside a shield.</desc>
  <rect x="18" y="18" width="964" height="964" rx="180" fill="#ffffff"/>
  <g transform="translate(500 500) scale(1.06) translate(-500 -500)">
    <g transform="translate(139.664804 -4.469274) scale(2.402235)" fill-rule="evenodd" clip-rule="evenodd">
  <path d="M 150 380.193 L 149 379.952 L 147 379.046 L 141.24 376 L 133 372.201 L 122.987 367 L 115 363.338 L 102 356.321 L 93.518 351 L 86 346.617 L 77 340.397 L 64 330.278 L 57.346 324 L 50.553 317 L 47.949 314 L 42.448 307 L 36.289 298 L 33.475 293 L 31.549 289 L 26.601 277 L 25.57 274 L 23.681 267 L 22.542 262 L 21.516 256 L 20.781 249 L 20.571 245 L 20.522 200 L 20.683 191 L 20.483 174 L 20.673 134 L 20.578 92 L 20.717 91 L 22 90.283 L 24 89.732 L 39 86.238 L 57 81.013 L 69 76.84 L 74 75.309 L 75 74.812 L 80 73.258 L 81 72.69 L 83 72.071 L 84 71.542 L 88 70.159 L 89 69.606 L 96 67.046 L 97 66.492 L 98 66.224 L 99 65.595 L 103 64.045 L 109.858 61 L 126 53.232 L 139 46.055 L 150 38.966 L 151 39.013 L 165 47.232 L 180 55.155 L 184 57.064 L 188 58.585 L 189 59.166 L 195 61.623 L 203 65.283 L 204 65.571 L 205 66.172 L 209 67.643 L 210 68.174 L 212 68.79 L 215 70.108 L 222 72.561 L 223 73.071 L 225 73.581 L 229 75.143 L 234 76.63 L 235 77.107 L 237 77.608 L 238 78.122 L 240 78.627 L 241 79.157 L 247 81.189 L 249 81.583 L 258 84.228 L 264 85.679 L 265 86.103 L 268 86.719 L 269 87.131 L 272 87.735 L 273 88.112 L 276 88.661 L 278 89.257 L 279.124 90 L 279.294 91 L 279.385 111 L 279.393 191 L 279.298 245 L 278.466 255 L 277.288 262 L 276.719 264 L 276.183 267 L 274.304 274 L 271.421 282 L 264.366 296 L 260.911 301 L 257.261 307 L 252.607 313 L 245.284 321 L 239 327.342 L 233 332.507 L 226 337.903 L 223 340.442 L 219 343.257 L 214 346.569 L 206 351.488 L 190 360.552 L 184 363.54 L 180.586 365 L 170 370.354 L 164.32 373 L 158 376.375 L 150 380.193 Z M 151.313 368 L 176 356.325 L 193 347.355 L 207 339.157 L 213 335.082 L 221 329.223 L 226 325.183 L 237 315.004 L 240 311.84 L 245.023 306 L 248.01 302 L 254.141 293 L 257.069 288 L 258.41 285 L 259.057 284 L 263.165 274 L 265.074 268 L 265.454 266 L 266.113 264 L 266.579 261 L 267.175 259 L 268.01 254 L 268.342 250 L 268.501 225 L 268.493 99 L 268.368 98 L 268 97.675 L 265 96.804 L 263 96.431 L 261.976 96 L 256 94.586 L 232 87.29 L 218 82.44 L 217 81.889 L 215 81.331 L 214 80.787 L 210 79.416 L 209 78.83 L 205 77.4 L 204 76.847 L 200 75.453 L 199 74.867 L 195 73.406 L 194 72.796 L 193 72.523 L 189.94 71 L 186 69.477 L 179 66.326 L 176 64.744 L 175 64.421 L 174 63.748 L 171 62.431 L 170 61.763 L 169 61.413 L 165 59.31 L 156 54.39 L 152 51.862 L 151 51.503 L 150 51.706 L 146 54.407 L 145 54.84 L 141 57.334 L 138 58.824 L 137 59.54 L 130 63.339 L 129 63.722 L 128 64.4 L 116 69.893 L 115 70.506 L 114 70.786 L 113 71.431 L 107 73.86 L 106 74.452 L 102 75.926 L 99 77.4 L 95 78.852 L 94 79.417 L 92.151 80 L 91 80.583 L 90 80.82 L 89 81.395 L 87.022 82 L 86 82.533 L 82 83.823 L 81 84.366 L 79 84.897 L 78 85.391 L 76 85.932 L 75 86.49 L 73 86.994 L 72 87.51 L 70 87.977 L 69 88.493 L 64 89.88 L 63 90.377 L 61 90.84 L 50 94.472 L 44 95.924 L 43 96.432 L 41 96.85 L 39 97.559 L 37 97.887 L 35 98.586 L 32.865 99 L 32 99.312 L 31.469 100 L 31.404 246 L 31.736 252 L 32.19 254 L 32.643 258 L 33.627 263 L 36.772 274 L 38.591 279 L 40.82 284 L 44.909 292 L 48 296.937 L 50.831 301 L 54.589 306 L 57.956 310 L 63.635 316 L 70 322.018 L 76 327.095 L 87 335.158 L 95 340.342 L 109 348.472 L 126 357.427 L 149 368.233 L 150 368.511 L 151.313 368 Z M 150 361.262 L 149 360.982 L 143.324 358 L 131 352.26 L 118 345.612 L 105 338.433 L 94 331.444 L 88 327.392 L 78 319.591 L 72 314.29 L 68.698 311 L 64.14 306 L 63.909 305 L 69 301.537 L 73 299.524 L 77 297.837 L 83 295.766 L 86 295.125 L 87 294.722 L 94 293.567 L 102 293.113 L 109 293.203 L 115 293.615 L 121 294.56 L 135 297.597 L 140 299.193 L 142 299.605 L 145 300.537 L 147 301.305 L 149 301.793 L 150 302.27 L 152 302.741 L 153 303.213 L 155 303.669 L 156 304.144 L 158 304.614 L 166 307.331 L 177 310.211 L 183 311.383 L 190 312.224 L 197 312.162 L 205 311.237 L 209 310.252 L 214 308.303 L 218 306.324 L 223 303.313 L 227.388 300 L 233 294.379 L 235.076 292 L 235.478 291 L 235 290.836 L 234 291.509 L 229 293.394 L 223 294.913 L 222 295.337 L 219 295.805 L 216 296.541 L 210 297.316 L 206 297.574 L 199 297.678 L 193 297.361 L 186 296.459 L 184 295.973 L 180 295.4 L 178.858 295 L 176 294.544 L 174 293.871 L 172 293.519 L 167 291.816 L 165 291.323 L 164 290.841 L 162 290.431 L 161 289.923 L 159 289.476 L 158 288.985 L 156 288.475 L 155 287.967 L 153 287.456 L 152 286.904 L 150 286.359 L 146.675 285 L 139 282.518 L 137.962 282 L 136 281.484 L 134.942 281 L 129 279.368 L 128 278.887 L 126 278.497 L 124 277.794 L 122 277.422 L 120 276.77 L 118 276.464 L 116 275.894 L 113 275.483 L 110 274.74 L 107 274.432 L 104 273.86 L 100 273.588 L 93 273.445 L 85 273.642 L 82 273.898 L 76 274.863 L 68 276.871 L 67 277.367 L 65 277.834 L 64 278.331 L 62 278.901 L 58 280.695 L 55 282.397 L 52 283.742 L 51 284.523 L 50 284.855 L 49.097 284 L 47.466 281 L 46 277.15 L 45.367 276 L 45.111 275 L 44.549 274 L 44.01 272 L 43.508 271 L 43.071 269 L 42.335 267 L 42 265.168 L 41.225 263 L 41.223 262 L 43 260.638 L 50 256.705 L 55 254.493 L 56 254.25 L 60 252.621 L 62 252.165 L 63 251.698 L 66 251.138 L 67 250.726 L 73 249.616 L 83 248.596 L 90 248.636 L 100 249.626 L 102 250.168 L 105 250.554 L 106.204 251 L 109 251.48 L 111 252.122 L 113 252.511 L 114.027 253 L 116 253.463 L 125 256.504 L 133.131 260 L 135 260.622 L 141 263.313 L 142 263.581 L 143 264.177 L 144 264.457 L 148 266.33 L 149 266.584 L 150 267.154 L 156 269.522 L 157 270.101 L 164 272.504 L 168 274.151 L 170 274.682 L 171 275.2 L 174 276.188 L 180 277.684 L 181 278.104 L 187 279.431 L 187.532 279 L 179.825 188 L 177.815 162 L 177.422 161 L 177 160.725 L 124 160.791 L 123 161.089 L 122.739 162 L 121.493 177 L 120.806 182 L 120.486 187 L 119.741 193 L 119.401 198 L 118.82 202 L 118.344 208 L 117.878 211 L 117.486 217 L 116.76 222 L 116.462 227 L 115.886 231 L 115.512 236 L 115 236.703 L 114 236.729 L 106 234.638 L 94 232.624 L 83 232.105 L 73 232.568 L 65 233.778 L 57 235.639 L 51 237.722 L 46 239.933 L 42 241.965 L 40 243.259 L 39 243.628 L 38.314 243 L 38.223 107 L 38.328 106 L 39 105.385 L 44 104.316 L 56 101.217 L 57 100.759 L 63 99.165 L 64 98.711 L 66 98.259 L 72 96.355 L 82 92.793 L 84 92.245 L 85 91.747 L 87 91.185 L 88 90.684 L 90 90.135 L 91 89.622 L 98 87.197 L 99 86.649 L 101 86.065 L 106 84.117 L 107 83.567 L 111 82.182 L 114 80.679 L 124.862 76 L 138 69.265 L 145 65.28 L 151 61.269 L 152 61.466 L 153 62.24 L 154 62.605 L 160 66.016 L 172 72.1 L 180 75.619 L 183 77.21 L 184 77.513 L 185 78.107 L 197 83.307 L 206 86.706 L 207 87.241 L 212 89.067 L 214 89.61 L 215 90.106 L 217 90.645 L 218 91.145 L 220 91.674 L 221 92.165 L 226 93.664 L 227 94.154 L 229 94.654 L 230 95.129 L 232 95.635 L 236 97.085 L 240 98.259 L 242 98.622 L 244 99.32 L 250 100.759 L 251 101.166 L 261 103.545 L 261.407 104 L 261.488 244 L 261 244.854 L 260 245.488 L 257 246.704 L 256 247.324 L 251 248.946 L 250 249.447 L 248 249.891 L 247 250.341 L 244 250.934 L 243 251.343 L 241 251.643 L 238 252.443 L 233 253.26 L 223 254.305 L 217 254.506 L 210 254.362 L 199 253.452 L 198.63 254 L 199.033 256 L 199.99 259 L 202 262.787 L 204.623 266 L 207 268.149 L 210 270.18 L 212 271.288 L 216 273.104 L 220 274.267 L 226 275.172 L 229 275.27 L 232 275.114 L 237 274.312 L 241 273.244 L 246 271.281 L 252 268.243 L 255 266.324 L 257 264.661 L 258 264.721 L 258.185 265 L 257.704 266 L 256.39 271 L 253.147 279 L 251.221 283 L 247.416 290 L 244.336 295 L 237.424 304 L 230 311.916 L 224 317.519 L 217 323.376 L 213 326.459 L 201 334.513 L 193 339.378 L 184 344.435 L 174.611 349 L 168 352.537 L 156.314 358 L 150 361.262 Z M 175.298 120 L 176 119.647 L 176.282 119 L 176.073 115 L 175.29 111 L 174 107.1 L 171.214 102 L 168 98.391 L 165 95.78 L 161.883 94 L 159.442 93 L 155 91.8 L 150 91.517 L 145 91.843 L 142 92.722 L 139 93.988 L 135.617 96 L 131.95 99 L 130.988 100 L 128.759 103 L 127 106.334 L 126.47 108 L 125.943 109 L 124.899 114 L 124.667 119 L 125 119.679 L 126 119.822 L 137 120.052 L 175.298 120 Z M 187.418 151 L 188.354 150 L 188.772 149 L 188.859 148 L 188.865 132 L 188.676 131 L 188.169 130 L 187 128.837 L 186 128.414 L 173 128.13 L 130 128.3 L 116 128.122 L 115 128.196 L 113.301 129 L 111.7 131 L 111.681 149 L 112 149.927 L 112.925 151 L 114 151.669 L 118 151.845 L 177 151.793 L 186 151.674 L 187 151.354 L 187.418 151 Z M 173.787 325 L 177 324.48 L 178.233 324 L 177 323.403 L 168 321.521 L 164 320.428 L 142 312.883 L 136 311.348 L 135 310.94 L 132 310.503 L 130 309.899 L 122 308.909 L 114 308.838 L 106 309.928 L 105 310.334 L 102.137 311 L 101 311.487 L 98.615 312 L 99 312.518 L 100.044 313 L 105 313.573 L 115 315.593 L 127 318.7 L 132 320.35 L 139 322.261 L 141 322.635 L 143 323.261 L 152 325.071 L 155 325.45 L 162 325.786 L 170 325.518 L 173.787 325 Z" fill="#000000"/>
  <path d="M 151 368.168 L 150 368.504 L 149 368.226 L 124 356.401 L 107 347.332 L 95 340.334 L 87 335.145 L 75 326.287 L 69 321.111 L 64 316.355 L 58.868 311 L 55 306.503 L 50.843 301 L 46.743 295 L 44.922 292 L 41.77 286 L 38.597 279 L 36.778 274 L 33.635 263 L 32.654 258 L 32.208 254 L 31.749 252 L 31.418 246 L 31.389 185 L 31.457 101 L 31.481 100 L 32 99.328 L 43 96.44 L 44 95.93 L 50 94.486 L 61 90.851 L 63 90.393 L 64 89.891 L 69 88.507 L 70 87.989 L 72 87.523 L 73.019 87 L 75 86.504 L 76 85.944 L 81 84.379 L 82 83.829 L 86 82.539 L 87.038 82 L 89 81.403 L 90 80.825 L 94 79.424 L 95 78.859 L 99 77.412 L 102 75.937 L 106 74.466 L 107 73.871 L 111 72.334 L 112 71.734 L 113 71.445 L 114 70.796 L 115 70.518 L 116 69.904 L 128 64.415 L 129 63.732 L 130 63.354 L 137 59.551 L 138 58.835 L 141 57.35 L 145 54.851 L 146 54.418 L 150 51.714 L 151 51.511 L 152 51.869 L 156 54.397 L 167 60.392 L 179 66.339 L 186 69.484 L 192 71.908 L 195 73.413 L 196.896 74 L 200 75.46 L 209 78.836 L 210 79.423 L 211.962 80 L 215 81.34 L 217 81.895 L 218 82.447 L 219.944 83 L 221 83.518 L 228 85.818 L 229 86.316 L 234.649 88 L 236 88.583 L 237.835 89 L 239 89.543 L 241 89.955 L 242 90.45 L 244 90.877 L 245 91.348 L 251 92.989 L 252 93.443 L 254 93.877 L 256 94.598 L 261.929 96 L 263 96.447 L 265 96.815 L 268 97.688 L 268.354 98 L 268.481 99 L 268.504 142 L 268.466 246 L 268.218 252 L 267.17 259 L 266.563 261 L 266.102 264 L 264 271.578 L 260 281.786 L 257.057 288 L 252.196 296 L 248.004 302 L 245.016 306 L 240 311.829 L 236.995 315 L 227.311 324 L 221 329.21 L 213 335.076 L 207 339.15 L 193 347.349 L 176 356.318 L 162 363.059 L 154 366.611 L 151 368.168 Z M 150.456 361 L 156.329 358 L 168 352.544 L 174.624 349 L 184 344.442 L 193 339.386 L 201 334.521 L 213 326.467 L 217 323.384 L 224 317.526 L 230 311.923 L 237.431 304 L 244.344 295 L 247.423 290 L 251.23 283 L 253.156 279 L 256.397 271 L 257.71 266 L 258.195 265 L 258 264.707 L 257 264.652 L 255 266.319 L 252 268.237 L 246 271.275 L 241 273.238 L 237 274.307 L 232 275.108 L 229 275.265 L 226 275.167 L 220 274.262 L 216 273.098 L 212 271.283 L 210 270.175 L 207 268.143 L 204.63 266 L 202 262.776 L 199.996 259 L 199.054 256 L 198.643 254 L 199 253.472 L 210 254.376 L 217 254.517 L 223 254.313 L 233 253.268 L 238 252.45 L 241 251.653 L 243 251.358 L 244 250.946 L 247 250.356 L 248 249.903 L 250 249.459 L 251 248.958 L 256 247.339 L 257 246.715 L 260 245.494 L 261 244.864 L 261.494 244 L 261.413 104 L 261 103.538 L 251 101.16 L 250 100.751 L 244 99.315 L 242 98.615 L 240 98.253 L 236 97.079 L 232 95.628 L 230 95.123 L 229 94.647 L 227 94.148 L 226 93.656 L 221 92.16 L 220 91.666 L 218 91.139 L 217 90.637 L 215 90.1 L 214 89.603 L 212 89.06 L 207 87.236 L 206 86.698 L 197 83.302 L 185 78.101 L 184 77.507 L 183 77.204 L 180 75.611 L 172 72.094 L 160 66.01 L 154 62.599 L 153 62.233 L 152 61.459 L 151 61.263 L 145 65.274 L 138 69.255 L 124.838 76 L 114 80.671 L 111 82.177 L 107 83.561 L 106 84.111 L 101 86.059 L 99 86.642 L 98 87.191 L 91 89.615 L 90 90.129 L 88 90.676 L 87 91.18 L 85 91.738 L 84 92.24 L 82 92.784 L 72 96.349 L 66 98.253 L 64 98.703 L 63 99.16 L 57 100.751 L 56 101.212 L 44 104.311 L 39 105.379 L 38.322 106 L 38.218 107 L 38.307 243 L 39 243.635 L 40 243.268 L 42 241.971 L 46 239.94 L 51 237.734 L 57 235.65 L 65 233.783 L 73 232.573 L 83 232.115 L 94 232.634 L 106 234.643 L 114 236.734 L 115 236.712 L 115.519 236 L 115.892 231 L 116.469 227 L 116.765 222 L 117.493 217 L 117.883 211 L 118.352 208 L 118.825 202 L 119.409 198 L 119.746 193 L 120.493 187 L 120.812 182 L 121.499 177 L 122.744 162 L 123 161.105 L 124 160.797 L 177 160.732 L 177.412 161 L 177.805 162 L 179.807 188 L 187.522 279 L 187 279.42 L 181 278.098 L 180 277.676 L 174 276.183 L 173 275.726 L 171 275.195 L 170 274.674 L 168 274.145 L 167 273.603 L 165 273.004 L 164 272.498 L 157 270.095 L 156 269.516 L 150 267.148 L 149 266.577 L 148 266.325 L 144 264.451 L 143 264.172 L 142 263.574 L 141 263.308 L 135 260.615 L 133.144 260 L 125 256.497 L 116 253.457 L 114.046 253 L 113 252.504 L 111 252.116 L 109 251.474 L 106.226 251 L 105 250.546 L 102 250.163 L 100 249.618 L 90 248.624 L 83 248.588 L 73 249.609 L 67 250.717 L 66 251.132 L 63 251.689 L 62 252.159 L 60 252.613 L 56 254.244 L 55 254.484 L 50 256.697 L 43 260.631 L 41.217 262 L 41.219 263 L 42 265.191 L 42.329 267 L 43.065 269 L 43.501 271 L 44.004 272 L 44.541 274 L 45.105 275 L 45.361 276 L 46 277.168 L 47.459 281 L 49.092 284 L 50 284.861 L 51 284.53 L 52 283.747 L 55 282.405 L 58 280.701 L 62 278.913 L 64 278.347 L 65 277.839 L 67 277.375 L 68 276.877 L 76 274.869 L 82 273.909 L 85 273.649 L 93 273.452 L 100 273.594 L 104 273.866 L 107 274.439 L 110 274.745 L 113 275.489 L 116 275.899 L 117 276.254 L 120 276.775 L 122 277.429 L 124 277.799 L 126 278.507 L 128 278.898 L 129 279.376 L 134.925 281 L 136 281.49 L 137.946 282 L 139 282.524 L 146.661 285 L 150 286.367 L 152 286.909 L 153 287.463 L 155 287.973 L 156 288.482 L 158 288.99 L 159 289.483 L 161 289.928 L 162 290.439 L 164 290.846 L 165 291.331 L 167 291.822 L 172 293.526 L 174 293.876 L 176 294.55 L 178.835 295 L 180 295.408 L 184 295.979 L 186 296.473 L 193 297.378 L 199 297.683 L 206 297.58 L 210 297.325 L 216 296.547 L 219 295.81 L 222 295.345 L 223 294.918 L 229 293.402 L 234 291.515 L 235 290.842 L 235.462 291 L 235.07 292 L 233 294.372 L 227.381 300 L 223 303.307 L 218 306.318 L 214 308.297 L 209 310.246 L 205 311.232 L 197 312.156 L 190 312.212 L 183 311.378 L 177 310.206 L 166 307.326 L 158 304.607 L 156 304.138 L 155 303.661 L 153 303.208 L 152 302.732 L 150 302.264 L 149 301.784 L 147 301.299 L 145 300.531 L 142 299.599 L 140 299.188 L 135 297.591 L 121 294.554 L 115 293.608 L 109 293.198 L 102 293.106 L 94 293.561 L 87 294.713 L 86 295.119 L 83 295.757 L 77 297.828 L 73 299.518 L 69 301.531 L 63.898 305 L 64.134 306 L 68.689 311 L 72 314.299 L 78 319.597 L 88 327.408 L 94 331.456 L 105 338.441 L 120 346.68 L 135 354.216 L 145.363 359 L 149 360.989 L 150 361.27 L 150.456 361 Z M 175 120.064 L 159 119.913 L 137 120.045 L 126 119.813 L 125 119.669 L 124.672 119 L 124.904 114 L 125.955 109 L 126.484 108 L 127 106.358 L 128.77 103 L 131 100.001 L 131.963 99 L 135.634 96 L 139.001 94 L 142 92.732 L 145 91.854 L 150 91.53 L 155 91.811 L 159.413 93 L 161.854 94 L 165 95.792 L 168.596 99 L 171.207 102 L 174 107.114 L 175.284 111 L 176.066 115 L 176.27 119 L 176 119.619 L 175 120.064 Z M 187 151.348 L 186 151.666 L 175 151.798 L 118 151.836 L 114 151.661 L 112.932 151 L 112 149.913 L 111.686 149 L 111.704 131 L 113.312 129 L 115 128.206 L 116 128.131 L 130 128.308 L 173 128.14 L 186 128.43 L 187 128.849 L 188.155 130 L 188.661 131 L 188.846 132 L 188.764 149 L 188.348 150 L 187 151.348 Z M 167.074 209 L 167.757 208 L 167.781 207 L 167.824 180 L 167.559 179 L 167 178.493 L 166 178.378 L 155 178.45 L 154 178.663 L 153.703 179 L 153.45 180 L 153.492 208 L 154 208.862 L 155 209.131 L 166 209.209 L 167.074 209 Z M 173 325.152 L 170 325.512 L 162 325.777 L 155 325.445 L 152 325.064 L 143 323.255 L 141 322.628 L 139 322.255 L 132 320.344 L 127 318.692 L 115 315.587 L 105 313.563 L 100.128 313 L 99 312.48 L 98.644 312 L 101 311.5 L 102.183 311 L 105 310.342 L 106 309.934 L 114 308.843 L 122 308.914 L 130 309.904 L 132 310.51 L 135 310.945 L 136 311.356 L 142 312.888 L 164 320.436 L 168 321.528 L 177 323.417 L 178.216 324 L 177 324.469 L 175 324.682 L 173 325.152 Z" fill="#FFFFFF"/>
  <path d="M 167 209.047 L 166 209.2 L 155 209.122 L 154 208.853 L 153.498 208 L 153.455 180 L 153.711 179 L 154 178.672 L 155 178.457 L 166 178.385 L 167 178.501 L 167.55 179 L 167.819 180 L 167.775 207 L 167.751 208 L 167 209.047 Z" fill="#000000"/>
</g>
  </g>
</svg>
